<svg 
xmlns="http://www.w3.org/2000/svg"
xmlns:xlink="http://www.w3.org/1999/xlink" 
width="1920" 
zoomAndPan="magnify" 
viewBox="0 0 1440 809.999993" 
height="1080" 
preserveAspectRatio="xMidYMid meet" 
version="1.0">
<path fill="#5b6e74" d="M 769.527344 442.761719 C 760.296875 448.335938 750.226562 453.730469 739.347656 454.960938 C 722.753906 456.84375 716.398438 450.828125 697.28125 449.976562 C 678.839844 449.152344 673.375 449.652344 661.824219 437.085938 C 658.246094 433.195312 653.722656 430.75 649.304688 427.960938 C 629.410156 415.398438 645.046875 401.375 640.613281 386.8125 C 639.105469 381.855469 632.40625 376.601562 630.75 372.113281 C 629.863281 369.714844 630.285156 365.589844 631.722656 363.460938 C 632.445312 362.386719 636.902344 356.839844 635.996094 355.535156 C 637.171875 357.234375 638.578125 358.753906 640.226562 359.996094 C 646.300781 364.5625 654.652344 366.265625 662.046875 367.023438 C 682.09375 369.082031 704.023438 361.9375 712.828125 359.355469 C 712.980469 359.28125 713.136719 359.214844 713.285156 359.140625 C 712.960938 359.175781 712.632812 359.214844 712.308594 359.246094 C 695.527344 361.074219 646.824219 375.042969 635.558594 347.5 C 633.71875 343 633.445312 335.714844 636.292969 331.558594 C 640.015625 326.117188 646.832031 322.945312 649.964844 315.929688 C 652.964844 321.019531 658.796875 323.476562 663.800781 325.984375 C 671.675781 329.929688 673.445312 330.175781 681.519531 331.207031 C 681.519531 331.179688 681.523438 331.144531 681.519531 331.117188 C 679.394531 329.824219 658.847656 323.023438 652.984375 313.917969 C 649.988281 309.257812 648.949219 300.136719 652.667969 295.765625 C 655.265625 292.726562 660.128906 291.796875 663.308594 289.359375 C 669.378906 284.703125 669.804688 276.972656 674.867188 271.726562 C 675.566406 271 677.910156 269.324219 680.691406 267.433594 C 679.140625 270.226562 683.21875 274.21875 685.832031 275.984375 C 687.699219 277.269531 689.441406 277.957031 690.867188 278.382812 C 692.300781 278.792969 693.445312 278.933594 694.300781 278.980469 C 695.160156 279.011719 695.738281 278.96875 696.105469 278.917969 C 696.46875 278.867188 696.617188 278.832031 696.617188 278.832031 C 696.617188 278.832031 696.515625 278.753906 696.230469 278.636719 C 695.9375 278.523438 695.46875 278.355469 694.726562 278.117188 C 693.285156 277.585938 690.667969 276.949219 686.949219 274.519531 C 678.246094 268.703125 682.285156 266.496094 682.246094 266.410156 C 682.246094 266.414062 682.238281 266.410156 682.214844 266.410156 C 682.992188 265.886719 683.785156 265.359375 684.570312 264.839844 C 683.304688 272.046875 692.875 276.128906 699.046875 277.007812 C 702 277.429688 705.015625 277.390625 707.96875 276.933594 C 698.171875 275.128906 689.386719 272.992188 688.167969 267.902344 C 687.421875 264.796875 690.433594 260.980469 692.898438 259.460938 C 719.628906 243.019531 721.117188 253 734.714844 260.386719 C 742.097656 264.402344 751.515625 264.644531 757.160156 271.46875 C 757.253906 271.582031 757.34375 271.703125 757.4375 271.816406 C 757.46875 272.003906 757.578125 272.175781 757.789062 272.320312 C 757.824219 272.339844 757.851562 272.363281 757.886719 272.386719 C 759.222656 274.128906 760.40625 275.984375 761.75 277.71875 C 762.925781 282.347656 760.449219 287.851562 756.808594 291.109375 C 738.925781 307.148438 716.644531 296.050781 699.828125 302.703125 C 699.5625 302.804688 699.460938 303.042969 699.476562 303.261719 C 706.609375 301.351562 721.425781 303.261719 727.878906 303.460938 C 745.519531 304.003906 765.9375 294.84375 764.027344 280.40625 C 766.734375 283.386719 770.332031 285.367188 772.621094 288.707031 C 777.144531 295.300781 775.035156 303.292969 776.730469 310.613281 C 775.707031 315.917969 773.171875 318.796875 772.203125 320.40625 C 772.480469 320.226562 773.863281 320.113281 776.203125 316.851562 C 776.734375 316.046875 777.289062 315.035156 777.757812 313.792969 C 783.449219 327.007812 813.609375 344.007812 777.289062 374.40625 C 751.113281 396.316406 711.765625 379.234375 680.777344 395.847656 C 680.1875 396.160156 680.707031 397.03125 681.292969 396.738281 C 703.917969 385.386719 730.609375 392.617188 754.640625 388.230469 C 768.015625 385.785156 781.773438 378.320312 789.4375 366.785156 C 790.679688 373.246094 793.476562 379.445312 790.148438 386.382812 C 786.167969 394.675781 788.964844 398.621094 791.636719 407.523438 C 796.292969 423.050781 783.367188 434.410156 769.527344 442.761719 Z M 712.648438 560.582031 C 712.632812 561.308594 711.945312 561.820312 711.242188 561.632812 C 711.230469 561.632812 711.222656 561.632812 711.21875 561.632812 C 710.738281 561.503906 710.398438 561.078125 710.382812 560.582031 C 710.023438 550.851562 709.375 479.292969 708.683594 458.851562 C 709.921875 458.65625 711.269531 458.039062 714.367188 458.679688 C 715.042969 458.820312 715.472656 458.988281 715.96875 458.886719 C 715.089844 496.699219 713.277344 531.078125 712.648438 560.582031 Z M 795.46875 376.722656 C 794.867188 371.910156 792.167969 366.46875 793.082031 361.632812 C 794.511719 354.050781 802.289062 346.859375 794.535156 331.921875 C 791.144531 325.378906 785.375 321.398438 781.261719 315.585938 C 777.371094 310.09375 779.839844 303.417969 778.777344 297.308594 C 777.839844 291.917969 775.539062 287.195312 771.726562 283.246094 C 768.925781 280.34375 765.292969 278.265625 763.273438 274.773438 C 761.523438 271.761719 759.683594 269.214844 756.878906 267.074219 C 751.625 263.050781 745.082031 261.101562 738.8125 259.308594 C 732.875 257.605469 728.640625 252.523438 722.96875 250.046875 C 709.074219 243.980469 695.390625 255.222656 684.578125 262.585938 C 676.210938 268.285156 672.308594 268.769531 668.304688 278.015625 C 662.605469 291.179688 653.375 289.765625 649.941406 296.703125 C 646.964844 300.621094 646.769531 306.816406 648.230469 311.828125 C 646.480469 322.027344 634.550781 325.3125 631.957031 334.019531 C 629 343.953125 634.492188 351.09375 634.066406 353.921875 C 633.40625 358.292969 629.054688 361.613281 627.851562 365.898438 C 626.449219 370.875 628.566406 374.980469 631.664062 378.769531 C 636.066406 384.148438 638.546875 388.511719 637.992188 395.675781 C 637.1875 406.046875 633.277344 417.390625 641.3125 426.003906 C 645.058594 430.023438 650.148438 432.386719 654.574219 435.53125 C 659.859375 439.285156 663.199219 445.058594 668.917969 448.277344 C 677.925781 453.34375 686.609375 452.695312 704.40625 454.402344 C 705.507812 476.984375 705.058594 465.121094 706.167969 500.417969 C 708.085938 567.035156 706.613281 562.957031 711.585938 564.332031 C 713.359375 564.820312 715.117188 563.515625 715.164062 561.675781 C 715.941406 530.988281 716.84375 495.171875 717.835938 455.964844 C 727.355469 457.339844 728.316406 458.207031 736.136719 457.996094 C 745.355469 457.746094 754.078125 454.894531 762.296875 450.855469 C 810.878906 427.007812 794.199219 407.410156 792.246094 396.304688 C 790.871094 388.5 796.851562 387.738281 795.46875 376.722656 " fill-opacity="1" fill-rule="nonzero"/><path fill="#5b6e74" d="M 700.359375 436.25 C 725.222656 435.5 734.523438 423.441406 764.523438 422.222656 C 764.527344 422.074219 764.515625 421.925781 764.464844 421.792969 C 763.898438 421.5625 763.332031 421.332031 762.753906 421.121094 C 740.007812 418.160156 726.8125 430.882812 704.273438 433.078125 C 683.621094 435.089844 663.867188 428.441406 647.128906 416.566406 C 646.910156 416.417969 646.679688 416.5 646.535156 416.667969 C 647.351562 417.636719 648.179688 418.585938 649.03125 419.523438 C 663.101562 431.265625 682.179688 436.796875 700.359375 436.25 " fill-opacity="1" fill-rule="nonzero"/><path fill="#5b6e74" d="M 763.761719 439.757812 C 742.753906 449.394531 735.3125 448.207031 721.558594 449.46875 C 721.640625 449.46875 731.691406 452.082031 746.324219 448.230469 C 755.40625 445.792969 760.636719 442.726562 763.683594 440.851562 C 765.214844 439.90625 766.1875 439.164062 766.796875 438.703125 C 767.410156 438.238281 767.652344 438.03125 767.652344 438.03125 C 767.652344 438.03125 767.425781 438.09375 766.832031 438.347656 C 766.230469 438.582031 765.292969 439.078125 763.761719 439.757812 " fill-opacity="1" fill-rule="nonzero"/><path fill="#5b6e74" d="M 735.414062 444.828125 C 737.242188 444.988281 740.425781 445.125 745.210938 443.738281 C 752.53125 441.539062 755.378906 438.199219 755.460938 438.136719 C 747.902344 440.261719 749.292969 441.582031 735.414062 443.902344 C 734.507812 444.046875 733.582031 444.21875 732.972656 444.328125 C 733.058594 444.351562 733.828125 444.675781 735.414062 444.828125 " fill-opacity="1" fill-rule="nonzero"/><path fill="#5b6e74" d="M 684.285156 428.917969 C 689.839844 430 694.507812 430.121094 698.253906 429.894531 C 702 429.628906 704.839844 429.035156 706.929688 428.449219 C 709.023438 427.851562 710.386719 427.308594 711.226562 426.929688 C 712.070312 426.550781 712.40625 426.378906 712.40625 426.378906 C 712.40625 426.378906 712.136719 426.40625 711.382812 426.574219 C 711.003906 426.65625 710.507812 426.773438 709.855469 426.902344 C 709.203125 427.050781 708.402344 427.207031 707.417969 427.390625 C 705.445312 427.730469 702.738281 428.167969 699.039062 428.289062 C 683.296875 428.851562 670.394531 423.222656 656.832031 417.265625 C 656.9375 417.324219 669.226562 425.945312 684.285156 428.917969 " fill-opacity="1" fill-rule="nonzero"/><path fill="#5b6e74" d="M 683.035156 423.601562 C 686.535156 424.277344 688.824219 424.085938 690.171875 423.894531 C 691.332031 423.730469 691.894531 423.476562 691.984375 423.449219 C 691.984375 423.449219 691.640625 423.214844 690.402344 422.972656 C 689.164062 422.707031 687.035156 422.484375 683.480469 421.8125 C 681.929688 421.503906 674.617188 419.648438 674.53125 419.625 C 674.617188 419.679688 676.628906 422.308594 683.035156 423.601562 " fill-opacity="1" fill-rule="nonzero"/><path fill="#5b6e74" d="M 757.542969 397.203125 C 757.542969 397.203125 757.425781 397.167969 757.101562 397.164062 C 756.769531 397.144531 756.25 397.1875 755.429688 397.25 C 749.121094 397.761719 751.289062 398.320312 736.734375 398.441406 C 734.238281 398.4375 734.46875 398.496094 734.273438 398.503906 C 734.355469 398.539062 735.027344 398.949219 736.589844 399.351562 C 748.039062 402.234375 757.460938 397.226562 757.542969 397.203125 " fill-opacity="1" fill-rule="nonzero"/><path fill="#5b6e74" d="M 662.851562 372.359375 C 672.875 373.285156 678.824219 370.554688 678.90625 370.535156 C 670.589844 371.066406 663.089844 371.105469 655.058594 369.1875 C 651.625 368.355469 650.980469 368.070312 646.816406 366.855469 C 646.921875 366.914062 649.039062 368.84375 654.5625 370.664062 C 656.703125 371.359375 659.429688 372.027344 662.851562 372.359375 " fill-opacity="1" fill-rule="nonzero"/><path fill="#5b6e74" d="M 667.234375 375.875 C 668.652344 375.742188 669.144531 375.542969 669.144531 375.542969 C 668.273438 375.332031 670.511719 375.28125 660.214844 373.722656 C 656.429688 373.125 654.054688 372.671875 652.59375 372.488281 C 651.136719 372.289062 650.605469 372.320312 650.605469 372.320312 C 650.6875 372.363281 652.902344 374.425781 659.832031 375.527344 C 663.46875 376.082031 665.824219 376 667.234375 375.875 " fill-opacity="1" fill-rule="nonzero"/><path fill="#5b6e74" d="M 724.621094 331.714844 C 748.472656 331.21875 763.558594 318.804688 763.644531 318.761719 C 752.070312 324.96875 737.53125 329.285156 724.683594 330.15625 C 717.375 330.621094 714.058594 330.285156 710.148438 330.222656 C 710.628906 330.292969 715.140625 331.859375 724.621094 331.714844 " fill-opacity="1" fill-rule="nonzero"/><path fill="#5b6e74" d="M 735.664062 334.753906 C 737.582031 334.707031 739.964844 334.488281 742.824219 333.84375 C 751.589844 331.835938 755.363281 328.332031 755.464844 328.269531 C 744.941406 331.027344 748.082031 331.859375 728.335938 333.882812 C 728.421875 333.902344 730.582031 334.847656 735.664062 334.753906 " fill-opacity="1" fill-rule="nonzero"/><path fill="#5b6e74" d="M 743.09375 336.117188 C 740.289062 336.601562 738.496094 336.804688 737.40625 337.023438 C 736.3125 337.222656 735.929688 337.394531 735.929688 337.394531 C 736.015625 337.414062 738.054688 338.839844 743.324219 337.945312 C 748.175781 337.078125 749.796875 335.347656 749.882812 335.300781 C 749.882812 335.300781 750.984375 334.6875 743.09375 336.117188 " fill-opacity="1" fill-rule="nonzero"/><path fill="#5b6e74" d="M 783.738281 328.824219 C 783.898438 329.097656 788.523438 331.207031 789.578125 339.308594 C 792.167969 353.605469 779.519531 363.523438 779.464844 363.609375 C 795.15625 356.664062 794.605469 331.664062 783.738281 328.824219 " fill-opacity="1" fill-rule="nonzero"/><path fill="#5b6e74" d="M 638.039062 335.332031 C 638.019531 335.417969 635.613281 338.351562 636.75 344.441406 C 637.855469 350.164062 640.683594 352.167969 640.746094 352.25 C 639.390625 346.445312 637.875 345.363281 638.039062 335.332031 " fill-opacity="1" fill-rule="nonzero"/><path fill="#5b6e74" d="M 647.085938 390.023438 C 646.203125 379.675781 639.289062 377.027344 639.222656 376.941406 C 640.394531 379.023438 647.582031 382.941406 644.394531 401.292969 C 643.941406 403.84375 643.941406 404.175781 643.925781 404.261719 C 643.925781 404.261719 644.03125 404.15625 644.242188 403.804688 C 645.214844 402.203125 646.070312 399.621094 646.519531 397.644531 C 646.941406 395.722656 647.351562 393.210938 647.085938 390.023438 " fill-opacity="1" fill-rule="nonzero"/><path fill="#5b6e74" d="M 754.554688 300.6875 C 746.199219 302.84375 739.234375 307.597656 715.644531 305.679688 C 715.859375 305.738281 718.964844 307.289062 725.894531 307.800781 C 743.160156 308.976562 754.472656 300.71875 754.554688 300.6875 " fill-opacity="1" fill-rule="nonzero"/><path fill="#5b6e74" d="M 726.644531 270.101562 C 732.15625 266.710938 731.71875 259.835938 728.402344 257.90625 C 728.132812 257.757812 728.019531 257.71875 728.019531 257.71875 C 727.847656 257.800781 731.917969 263.324219 725.953125 268.6875 C 725.4375 269.132812 724.785156 269.6875 722.417969 271.242188 C 722.503906 271.226562 724.097656 271.660156 726.644531 270.101562 " fill-opacity="1" fill-rule="nonzero"/><path fill="#5b6e74" d="M 723.664062 274.371094 C 723.664062 274.371094 723.765625 274.417969 724.007812 274.472656 C 727.9375 275.308594 734.058594 270.71875 733.941406 265.457031 C 729.113281 271.683594 728.488281 271.8125 723.664062 274.371094 " fill-opacity="1" fill-rule="nonzero"/><path fill="#5b6e74" d="M 729.191406 276.996094 C 729.191406 276.996094 730.355469 277.476562 732.726562 275.839844 C 734.949219 274.304688 735.125 273.21875 735.125 273.21875 C 735.125 273.21875 734.144531 272.628906 731.761719 274.269531 C 729.371094 275.914062 729.191406 276.996094 729.191406 276.996094 " fill-opacity="1" fill-rule="nonzero"/><path fill="#5b6e74" d="M 713.953125 260.511719 C 713.953125 260.511719 713.914062 260.445312 713.804688 260.347656 C 713.414062 259.953125 712.097656 259.394531 710.734375 258.394531 C 709.308594 257.296875 708.75 256.289062 708.121094 255.578125 C 708.015625 255.460938 707.957031 255.414062 707.957031 255.414062 C 706.664062 258.449219 711.058594 262.050781 713.953125 260.511719 " fill-opacity="1" fill-rule="nonzero"/><path fill="#5b6e74" d="M 654.855469 308.96875 C 653.722656 306.84375 653.058594 304.53125 652.933594 302.023438 C 652.917969 301.515625 652.890625 301.304688 652.890625 301.304688 C 652.835938 301.488281 652.324219 302.476562 652.320312 304.558594 C 652.367188 308.992188 654.933594 313.242188 658.300781 316.183594 C 664.226562 321.324219 672.066406 323.015625 672.148438 323.050781 C 664.277344 318.089844 658.324219 315.550781 654.855469 308.96875 " fill-opacity="1" fill-rule="nonzero"/><path fill="#5b6e74" d="M 657.445312 325.007812 C 654.753906 323.539062 653.09375 322.542969 652.027344 322.007812 C 650.972656 321.460938 650.539062 321.355469 650.539062 321.355469 C 650.613281 321.441406 651.476562 323.835938 656.488281 326.585938 C 661.132812 329.09375 663.59375 328.859375 663.679688 328.875 C 663.085938 328.464844 664.804688 328.957031 657.445312 325.007812 " fill-opacity="1" fill-rule="nonzero"/><path fill="#5b6e74" d="M 671.175781 281.316406 C 667 291.453125 660.296875 294.085938 657.640625 296.121094 C 664.714844 295.046875 670.316406 288.953125 672.507812 282.234375 C 673.824219 277.675781 673.183594 275.582031 673.195312 275.261719 C 671.40625 280.863281 671.757812 279.835938 671.175781 281.316406 " fill-opacity="1" fill-rule="nonzero"/><path fill="#5b6e74" d="M 712.484375 256.820312 C 713.839844 257.886719 714.730469 257.585938 714.730469 257.585938 C 714.730469 257.585938 715.171875 256.605469 713.722656 255.453125 C 712.269531 254.300781 711.378906 254.597656 711.378906 254.597656 C 711.378906 254.597656 711.035156 255.671875 712.484375 256.820312 " fill-opacity="1" fill-rule="nonzero"/><path fill="#5b6e74" d="M 785.117188 400.921875 C 781.023438 393.230469 784.835938 389.691406 784.75 389.628906 C 784.722656 389.710938 779.890625 392.726562 783.394531 400.894531 C 784.621094 403.875 795.140625 418.699219 776.046875 431.617188 C 775.378906 432.066406 775.109375 432.25 775.109375 432.25 C 786.160156 427.832031 792.742188 416 787.605469 405.613281 C 786.722656 403.804688 785.816406 402.300781 785.117188 400.921875 " fill-opacity="1" fill-rule="nonzero"/><path fill="#5b6e74" d="M 676.117188 443.871094 C 669.484375 442.042969 665.035156 435.710938 663.503906 434.453125 C 664.050781 435.023438 668.074219 445.671875 681.65625 446.585938 C 697.1875 447.347656 702.863281 446.714844 702.945312 446.714844 C 702.945312 446.714844 702.164062 446.421875 699.152344 446.03125 C 688.855469 444.664062 681.203125 445.3125 676.117188 443.871094 " fill-opacity="1" fill-rule="nonzero"/><path fill="#5b6e74" d="M 726.445312 383.050781 C 725.980469 382.945312 725.207031 382.769531 723.972656 382.632812 C 714.261719 381.554688 700.792969 383.324219 691.980469 386.890625 C 701.316406 386.113281 681.640625 387.683594 727.0625 383.234375 C 727.0625 383.234375 726.910156 383.164062 726.445312 383.050781 " fill-opacity="1" fill-rule="nonzero"/><path fill="#5b6e74" d="M 777.429688 383.507812 C 778.28125 382.585938 778.597656 382.179688 778.597656 382.179688 C 778.597656 382.179688 778.285156 382.378906 777.457031 383.011719 C 776.605469 383.605469 775.246094 384.660156 772.878906 385.949219 C 770.523438 387.230469 767.144531 388.765625 762.289062 389.9375 C 757.445312 391.164062 751.128906 391.757812 743.0625 391.847656 C 739.027344 391.914062 735.34375 391.925781 732 392.070312 C 728.65625 392.199219 725.65625 392.472656 722.996094 392.800781 C 717.664062 393.464844 713.667969 394.359375 710.695312 395.121094 C 707.726562 395.890625 705.785156 396.535156 704.574219 396.953125 C 703.367188 397.386719 702.890625 397.585938 702.890625 397.585938 C 702.890625 397.585938 703.398438 397.523438 704.640625 397.292969 C 705.886719 397.082031 707.867188 396.738281 710.839844 396.222656 C 713.8125 395.742188 717.777344 395.140625 723.003906 394.675781 C 725.617188 394.457031 728.546875 394.269531 731.828125 394.191406 C 735.109375 394.105469 738.753906 394.125 742.796875 394.0625 C 750.367188 393.976562 756.660156 393.355469 761.601562 392.03125 C 766.554688 390.761719 770.121094 388.976562 772.617188 387.402344 C 775.105469 385.785156 776.554688 384.394531 777.429688 383.507812 " fill-opacity="1" fill-rule="nonzero"/></svg>